<svg xmlns="http://www.w3.org/2000/svg" version="1.1" xmlns:xlink="http://www.w3.org/1999/xlink" xmlns:svgjs="http://svgjs.dev/svgjs" width="2000" height="1247" viewBox="0 0 2000 1247"><g transform="matrix(1,0,0,1,-1.2121212121212466,0.504858299595071)"><svg viewBox="0 0 396 247" data-background-color="#ffffff" preserveAspectRatio="xMidYMid meet" height="1247" width="2000" xmlns="http://www.w3.org/2000/svg" xmlns:xlink="http://www.w3.org/1999/xlink"><g id="tight-bounds" transform="matrix(1,0,0,1,0.2400000000000091,-0.09999999999999432)"><svg viewBox="0 0 395.52 247.2" height="247.2" width="395.52"><g><svg></svg></g><g><svg viewBox="0 0 395.52 247.2" height="247.2" width="395.52"><g><g><path xmlns="http://www.w3.org/2000/svg" d="M134.547 236.606h137.02v10.594h-147.614l0-41.466 10.594 0zM123.953 0h10.594l0 41.466-10.594 0z" fill="#a437db" fill-rule="nonzero" stroke="none" stroke-width="1" stroke-linecap="butt" stroke-linejoin="miter" stroke-miterlimit="10" stroke-dasharray="" stroke-dashoffset="0" font-family="none" font-weight="none" font-size="none" text-anchor="none" style="mix-blend-mode: normal" data-fill-palette-color="tertiary"></path></g></g><g transform="matrix(1,0,0,1,2.842170943040401e-14,55.91986255167289)"><svg viewBox="0 0 395.5199999999999 135.3602748966542" height="135.3602748966542" width="395.5199999999999"><g><svg viewBox="0 0 395.5199999999999 135.3602748966542" height="135.3602748966542" width="395.5199999999999"><g><svg viewBox="0 0 395.52000000000004 135.36027489665423" height="135.3602748966542" width="395.5199999999999"><g><svg viewBox="0 0 395.52000000000004 135.36027489665423" height="135.36027489665423" width="395.52000000000004"><g id="textblocktransform"><svg viewBox="0 0 395.52000000000004 135.36027489665423" height="135.36027489665423" width="395.52000000000004" id="textblock"><g><svg viewBox="0 0 395.52000000000004 99.05196521739131" height="99.05196521739131" width="395.52000000000004"><g transform="matrix(1,0,0,1,0,0)"><svg width="395.52000000000004" viewBox="4.949999809265137 -35.5 143.74000549316406 36" height="99.05196521739131" data-palette-color="#a026dc"><path d="M6.45-1.5L25.85-1.5 25.85 0 4.95 0 4.95-35 6.45-35 6.45-1.5ZM49.5-19.8L49.5-18.3 34.65-18.3 49.95-33.5 33.05-33.5 33.05-1.5 52.45-1.5 52.45 0 31.55 0 31.55-35 53.6-35 38.3-19.8 49.5-19.8ZM64.65-0.05L64.65-1.5 84.34-1.5 84.34-31.45 73.09-7.35 61.85-31.5 61.85 0 60.35-0.05 60.35-35.05 61.85-35.05 73.09-10.9 84.34-35 85.84-35.05 85.84 0 64.65-0.05ZM115.19-3.28Q112.44 0.5 106.29 0.5 100.14 0.5 97.39-3.28 94.64-7.05 94.64-15.05L94.64-15.05 94.64-19.95Q94.64-27.95 97.39-31.73 100.14-35.5 106.29-35.5 112.44-35.5 115.19-31.73 117.94-27.95 117.94-19.95L117.94-19.95 117.94-15.05Q117.94-7.05 115.19-3.28ZM110.49-33.38Q108.74-34 106.29-34 103.84-34 102.09-33.38 100.34-32.75 98.94-31.25 97.54-29.75 96.84-26.93 96.14-24.1 96.14-19.95L96.14-19.95 96.14-15.05Q96.14-10.9 96.84-8.08 97.54-5.25 98.94-3.75 100.34-2.25 102.09-1.63 103.84-1 106.29-1 108.74-1 110.49-1.63 112.24-2.25 113.64-3.75 115.04-5.25 115.74-8.08 116.44-10.9 116.44-15.05L116.44-15.05 116.44-19.95Q116.44-24.1 115.74-26.93 115.04-29.75 113.64-31.25 112.24-32.75 110.49-33.38ZM130.64 0L130.64-1.5 146.14-1.5 128.24-32.45 128.24 0 126.74 0 126.74-35 128.49-35 147.19-2.65 147.19-35 148.69-35 148.69 0 130.64 0Z" opacity="1" transform="matrix(1,0,0,1,0,0)" fill="#a026dc" class="wordmark-text-0" data-fill-palette-color="primary" id="text-0"></path></svg></g></svg></g><g transform="matrix(1,0,0,1,98.88000000000001,113.50602418977392)"><svg viewBox="0 0 197.76000000000002 21.854250706880304" height="21.854250706880304" width="197.76000000000002"><g transform="matrix(1,0,0,1,0,0)"><svg width="197.76000000000002" viewBox="1.7300000190734863 -37.54999923706055 414.42999267578125 45.79999923706055" height="21.854250706880304" data-palette-color="#a437db"><path d="M41.94-35.01L48.39-35.01 42.53-2.2Q42.33-1.22 41.65-0.51 40.97 0.2 39.99 0.39L39.99 0.39Q38.99 0.56 38.1 0.17 37.21-0.22 36.69-1.05L36.69-1.05 25.07-20.14 13.43-1.05Q13.01-0.34 12.29 0.05 11.57 0.44 10.74 0.44L10.74 0.44Q9.59 0.44 8.72-0.29 7.84-1.03 7.64-2.2L7.64-2.2 1.73-35.01 8.18-35.01 12.38-11.89 22.39-27.86Q22.8-28.56 23.52-28.96 24.24-29.35 25.07-29.35L25.07-29.35Q25.9-29.35 26.61-28.96 27.32-28.56 27.78-27.86L27.78-27.86 37.74-11.89 41.94-35.01ZM80.81-17.65L80.81-17.65Q80.81-16.33 80.34-14.81 79.88-13.28 78.84-11.98 77.81-10.67 76.13-9.79 74.46-8.91 72.07-8.91L72.07-8.91 60.62-8.91 60.62-14.94 72.07-14.94Q73.36-14.94 74.07-15.73 74.78-16.53 74.78-17.7L74.78-17.7Q74.78-18.95 73.98-19.65 73.19-20.36 72.07-20.36L72.07-20.36 60.62-20.36Q59.32-20.36 58.62-19.57 57.91-18.77 57.91-17.6L57.91-17.6 57.91-8.74Q57.91-7.47 58.7-6.76 59.49-6.05 60.67-6.05L60.67-6.05 72.07-6.05 72.07 0 60.62 0Q59.3 0 57.77-0.46 56.25-0.93 54.94-1.97 53.64-3 52.76-4.68 51.88-6.35 51.88-8.74L51.88-8.74 51.88-17.65Q51.88-18.97 52.34-20.5 52.81-22.02 53.84-23.33 54.88-24.63 56.55-25.51 58.23-26.39 60.62-26.39L60.62-26.39 72.07-26.39Q73.39-26.39 74.91-25.93 76.44-25.46 77.74-24.43 79.05-23.39 79.93-21.72 80.81-20.04 80.81-17.65ZM114.18-17.5L114.18-8.91Q114.18-8.01 113.97-7.01 113.76-6.01 113.33-5.02 112.89-4.03 112.19-3.13 111.49-2.22 110.51-1.53 109.52-0.83 108.22-0.42 106.93 0 105.29 0L105.29 0 93.84 0Q92.94 0 91.94-0.21 90.94-0.42 89.95-0.85 88.96-1.29 88.06-1.99 87.15-2.69 86.46-3.67 85.76-4.66 85.35-5.97 84.93-7.28 84.93-8.91L84.93-8.91 84.93-37.55 91.28-37.55 91.28-8.91Q91.28-7.74 92.01-7.04 92.74-6.35 93.84-6.35L93.84-6.35 105.29-6.35Q106.49-6.35 107.16-7.06 107.83-7.76 107.83-8.91L107.83-8.91 107.83-17.5Q107.83-18.7 107.12-19.37 106.42-20.04 105.29-20.04L105.29-20.04 93.84-20.04 93.84-26.39 105.29-26.39Q106.2-26.39 107.2-26.18 108.2-25.98 109.19-25.54 110.18-25.1 111.08-24.4 111.98-23.71 112.67-22.72 113.35-21.73 113.76-20.43 114.18-19.14 114.18-17.5L114.18-17.5ZM171.5-20.36L171.5-14.65Q171.5-11.45 170.39-8.76 169.28-6.08 167.32-4.14 165.37-2.2 162.69-1.1 160 0 156.85 0L156.85 0 139.71 0Q139.03 0 138.44-0.24 137.86-0.49 137.43-0.92 137-1.34 136.76-1.93 136.51-2.51 136.51-3.2L136.51-3.2 136.51-31.81Q136.51-32.47 136.76-33.06 137-33.64 137.43-34.08 137.86-34.52 138.44-34.77 139.03-35.01 139.71-35.01L139.71-35.01 156.85-35.01Q160-35.01 162.69-33.91 165.37-32.81 167.32-30.87 169.28-28.93 170.39-26.23 171.5-23.54 171.5-20.36L171.5-20.36ZM165.15-14.65L165.15-20.36Q165.15-22.22 164.55-23.75 163.95-25.29 162.86-26.38 161.76-27.47 160.23-28.06 158.71-28.66 156.85-28.66L156.85-28.66 142.86-28.66 142.86-6.35 156.85-6.35Q158.71-6.35 160.23-6.95 161.76-7.54 162.86-8.63 163.95-9.72 164.55-11.24 165.15-12.77 165.15-14.65L165.15-14.65ZM205.41-17.65L205.41-17.65Q205.41-16.33 204.94-14.81 204.48-13.28 203.44-11.98 202.4-10.67 200.73-9.79 199.06-8.91 196.67-8.91L196.67-8.91 185.22-8.91 185.22-14.94 196.67-14.94Q197.96-14.94 198.67-15.73 199.38-16.53 199.38-17.7L199.38-17.7Q199.38-18.95 198.58-19.65 197.79-20.36 196.67-20.36L196.67-20.36 185.22-20.36Q183.92-20.36 183.22-19.57 182.51-18.77 182.51-17.6L182.51-17.6 182.51-8.74Q182.51-7.47 183.3-6.76 184.09-6.05 185.27-6.05L185.27-6.05 196.67-6.05 196.67 0 185.22 0Q183.9 0 182.37-0.46 180.85-0.93 179.54-1.97 178.23-3 177.36-4.68 176.48-6.35 176.48-8.74L176.48-8.74 176.48-17.65Q176.48-18.97 176.94-20.5 177.4-22.02 178.44-23.33 179.48-24.63 181.15-25.51 182.82-26.39 185.22-26.39L185.22-26.39 196.67-26.39Q197.99-26.39 199.51-25.93 201.04-25.46 202.34-24.43 203.65-23.39 204.53-21.72 205.41-20.04 205.41-17.65ZM234.43-26.39L241.17-26.39Q240.1-23.05 238.66-19.8 237.22-16.55 235.35-13.61 233.48-10.67 231.17-8.17 228.87-5.66 226.07-3.85 223.28-2.03 219.99-0.99 216.71 0.05 212.88 0.05L212.88 0.05Q212.22 0.05 211.63-0.2 211.04-0.44 210.61-0.87 210.17-1.29 209.92-1.87 209.68-2.44 209.68-3.1L209.68-3.1 209.68-26.39 216.03-26.39 216.03-6.54Q218.34-6.54 220.48-7.54 222.62-8.54 224.52-10.19 226.43-11.84 228.05-13.94 229.67-16.04 230.94-18.25 232.21-20.46 233.1-22.58 233.99-24.71 234.43-26.39L234.43-26.39ZM271.83-17.65L271.83-17.65Q271.83-16.33 271.37-14.81 270.91-13.28 269.87-11.98 268.83-10.67 267.16-9.79 265.49-8.91 263.09-8.91L263.09-8.91 251.64-8.91 251.64-14.94 263.09-14.94Q264.39-14.94 265.09-15.73 265.8-16.53 265.8-17.7L265.8-17.7Q265.8-18.95 265.01-19.65 264.22-20.36 263.09-20.36L263.09-20.36 251.64-20.36Q250.35-20.36 249.64-19.57 248.93-18.77 248.93-17.6L248.93-17.6 248.93-8.74Q248.93-7.47 249.73-6.76 250.52-6.05 251.69-6.05L251.69-6.05 263.09-6.05 263.09 0 251.64 0Q250.32 0 248.8-0.46 247.27-0.93 245.97-1.97 244.66-3 243.78-4.68 242.9-6.35 242.9-8.74L242.9-8.74 242.9-17.65Q242.9-18.97 243.37-20.5 243.83-22.02 244.87-23.33 245.91-24.63 247.58-25.51 249.25-26.39 251.64-26.39L251.64-26.39 263.09-26.39Q264.41-26.39 265.94-25.93 267.46-25.46 268.77-24.43 270.08-23.39 270.95-21.72 271.83-20.04 271.83-17.65ZM287.7-6.35L287.7 0 284.87 0Q283.5 0 281.95-0.46 280.4-0.93 279.06-1.99 277.71-3.05 276.84-4.75 275.96-6.45 275.96-8.91L275.96-8.91 275.96-37.55 282.3-37.55 282.3-8.91Q282.3-7.74 283.04-7.04 283.77-6.35 284.87-6.35L284.87-6.35 287.7-6.35ZM320.49-17.5L320.49-8.91Q320.49-7.28 320.07-5.97 319.66-4.66 318.97-3.67 318.29-2.69 317.38-1.99 316.48-1.29 315.49-0.85 314.5-0.42 313.49-0.21 312.48 0 311.57 0L311.57 0 300.12 0Q298.81 0 297.24-0.46 295.68-0.93 294.35-1.99 293.02-3.05 292.13-4.75 291.24-6.45 291.24-8.91L291.24-8.91 291.24-17.5Q291.24-19.95 292.13-21.64 293.02-23.34 294.35-24.4 295.68-25.46 297.24-25.93 298.81-26.39 300.12-26.39L300.12-26.39 311.57-26.39Q314.02-26.39 315.72-25.51 317.43-24.63 318.48-23.3 319.53-21.97 320.01-20.41 320.49-18.85 320.49-17.5L320.49-17.5ZM314.14-8.91L314.14-17.46Q314.14-18.77 313.48-19.41 312.82-20.04 311.57-20.04L311.57-20.04 300.17-20.04Q298.9-20.04 298.24-19.4 297.58-18.75 297.58-17.5L297.58-17.5 297.58-8.91Q297.58-7.67 298.24-7.01 298.9-6.35 300.17-6.35L300.17-6.35 311.57-6.35Q312.87-6.35 313.5-7.01 314.14-7.67 314.14-8.91L314.14-8.91ZM354.98-17.5L354.98-8.91Q354.98-7.28 354.56-5.97 354.15-4.66 353.47-3.67 352.78-2.69 351.88-1.99 350.98-1.29 349.99-0.85 349-0.42 348-0.21 347 0 346.09 0L346.09 0 334.64 0 334.64-6.35 346.09-6.35Q347.36-6.35 348-7.01 348.63-7.67 348.63-8.91L348.63-8.91 348.63-17.46Q348.63-18.77 347.99-19.41 347.34-20.04 346.09-20.04L346.09-20.04 334.69-20.04Q333.4-20.04 332.74-19.4 332.08-18.75 332.08-17.5L332.08-17.5 332.08 8.25 325.73 8.25 325.73-17.5Q325.73-19.14 326.15-20.43 326.56-21.73 327.26-22.72 327.95-23.71 328.86-24.4 329.76-25.1 330.75-25.54 331.74-25.98 332.75-26.18 333.76-26.39 334.64-26.39L334.64-26.39 346.09-26.39Q347.73-26.39 349.02-25.98 350.32-25.56 351.31-24.88 352.29-24.19 352.99-23.29 353.69-22.39 354.13-21.4 354.56-20.41 354.77-19.41 354.98-18.41 354.98-17.5L354.98-17.5ZM388.79-17.65L388.79-17.65Q388.79-16.33 388.33-14.81 387.86-13.28 386.83-11.98 385.79-10.67 384.12-9.79 382.44-8.91 380.05-8.91L380.05-8.91 368.6-8.91 368.6-14.94 380.05-14.94Q381.34-14.94 382.05-15.73 382.76-16.53 382.76-17.7L382.76-17.7Q382.76-18.95 381.97-19.65 381.17-20.36 380.05-20.36L380.05-20.36 368.6-20.36Q367.31-20.36 366.6-19.57 365.89-18.77 365.89-17.6L365.89-17.6 365.89-8.74Q365.89-7.47 366.68-6.76 367.48-6.05 368.65-6.05L368.65-6.05 380.05-6.05 380.05 0 368.6 0Q367.28 0 365.76-0.46 364.23-0.93 362.92-1.97 361.62-3 360.74-4.68 359.86-6.35 359.86-8.74L359.86-8.74 359.86-17.65Q359.86-18.97 360.32-20.5 360.79-22.02 361.83-23.33 362.86-24.63 364.54-25.51 366.21-26.39 368.6-26.39L368.6-26.39 380.05-26.39Q381.37-26.39 382.89-25.93 384.42-25.46 385.73-24.43 387.03-23.39 387.91-21.72 388.79-20.04 388.79-17.65ZM416.16-26.39L416.16-20.04 401.87-20.04Q400.58-20.04 399.92-19.4 399.26-18.75 399.26-17.5L399.26-17.5 399.26 0 392.91 0 392.91-17.5Q392.91-19.14 393.33-20.43 393.74-21.73 394.44-22.72 395.14-23.71 396.04-24.4 396.94-25.1 397.93-25.54 398.92-25.98 399.93-26.18 400.95-26.39 401.83-26.39L401.83-26.39 416.16-26.39Z" opacity="1" transform="matrix(1,0,0,1,0,0)" fill="#a437db" class="slogan-text-1" data-fill-palette-color="secondary" id="text-1"></path></svg></g></svg></g></svg></g></svg></g><g></g></svg></g></svg></g></svg></g></svg></g><defs></defs></svg><rect width="395.52" height="247.2" fill="none" stroke="none" visibility="hidden"></rect></g></svg></g></svg>